<mxfile host="app.diagrams.net" agent="Mozilla/5.0 (Windows NT 10.0; Win64; x64) AppleWebKit/537.36 (KHTML, like Gecko) Chrome/135.0.0.0 Safari/537.36 Edg/135.0.0.0" version="26.2.13">
  <diagram name="Page-1" id="jVy5ansgh5haitN2zPb1">
    <mxGraphModel dx="2723" dy="1880" grid="1" gridSize="10" guides="1" tooltips="1" connect="1" arrows="1" fold="1" page="1" pageScale="1" pageWidth="827" pageHeight="1169" math="0" shadow="0">
      <root>
        <mxCell id="0" />
        <mxCell id="1" parent="0" />
        <mxCell id="nLQTtZPJFhFnZga12o0D-1" value="req ReqDiagram" style="shape=umlFrame;whiteSpace=wrap;html=1;pointerEvents=0;width=114;height=30;" vertex="1" parent="1">
          <mxGeometry x="1170" y="120" width="1190" height="1150" as="geometry" />
        </mxCell>
        <mxCell id="nLQTtZPJFhFnZga12o0D-2" value="&lt;p style=&quot;margin:0px;margin-top:4px;text-align:center;&quot;&gt;&lt;i&gt;&amp;lt;&amp;lt;requirement&amp;gt;&amp;gt;&lt;/i&gt;&lt;br&gt;&lt;b&gt;Voice Guided Notification&lt;/b&gt;&lt;/p&gt;&lt;hr size=&quot;1&quot; style=&quot;border-style:solid;&quot;&gt;&lt;p style=&quot;margin:0px;margin-left:4px;&quot;&gt;Id=&quot;DR1&quot;&lt;/p&gt;&lt;p style=&quot;margin:0px;margin-left:4px;&quot;&gt;text=&quot;&lt;span id=&quot;docs-internal-guid-2a9801a0-7fff-4f0c-7176-f9042768ee36&quot;&gt;&lt;span style=&quot;font-family: Arial, sans-serif; background-color: transparent; font-variant-numeric: normal; font-variant-east-asian: normal; font-variant-alternates: normal; font-variant-position: normal; font-variant-emoji: normal; vertical-align: baseline; white-space-collapse: preserve;&quot;&gt;&lt;font&gt;The system shall provide  audio instructions to the user during navigation.&lt;/font&gt;&lt;/span&gt;&lt;/span&gt;&quot;&lt;/p&gt;" style="verticalAlign=top;align=left;overflow=fill;html=1;whiteSpace=wrap;" vertex="1" parent="1">
          <mxGeometry x="1649.5" y="490" width="180" height="120" as="geometry" />
        </mxCell>
        <mxCell id="nLQTtZPJFhFnZga12o0D-39" style="edgeStyle=orthogonalEdgeStyle;rounded=0;orthogonalLoop=1;jettySize=auto;html=1;exitX=0.5;exitY=0;exitDx=0;exitDy=0;entryX=0.5;entryY=1;entryDx=0;entryDy=0;endArrow=circlePlus;endFill=0;" edge="1" parent="1" source="nLQTtZPJFhFnZga12o0D-11" target="nLQTtZPJFhFnZga12o0D-2">
          <mxGeometry relative="1" as="geometry" />
        </mxCell>
        <mxCell id="nLQTtZPJFhFnZga12o0D-11" value="&lt;p style=&quot;margin:0px;margin-top:4px;text-align:center;&quot;&gt;&lt;i&gt;&amp;lt;&amp;lt;requirement&amp;gt;&amp;gt;&lt;/i&gt;&lt;br&gt;&lt;b&gt;Upcoming Notifications&lt;/b&gt;&lt;/p&gt;&lt;hr size=&quot;1&quot; style=&quot;border-style:solid;&quot;&gt;&lt;p style=&quot;margin:0px;margin-left:4px;&quot;&gt;Id=&quot;DR1.1&quot;&lt;/p&gt;&lt;p style=&quot;margin:0px;margin-left:4px;&quot;&gt;text=&quot;&lt;span id=&quot;docs-internal-guid-ffcac9a9-7fff-ea1d-9a6b-a21baaa114f1&quot;&gt;&lt;span style=&quot;font-family: Arial, sans-serif; background-color: transparent; font-variant-numeric: normal; font-variant-east-asian: normal; font-variant-alternates: normal; font-variant-position: normal; font-variant-emoji: normal; vertical-align: baseline; white-space-collapse: preserve;&quot;&gt;&lt;font&gt;The system shall  calculate and display a list of &lt;/font&gt;&lt;/span&gt;&lt;/span&gt;&lt;strong style=&quot;background-color: transparent; color: light-dark(rgb(0, 0, 0), rgb(255, 255, 255));&quot; data-end=&quot;481&quot; data-start=&quot;458&quot;&gt;route options&lt;/strong&gt;&lt;span style=&quot;background-color: transparent; color: light-dark(rgb(0, 0, 0), rgb(255, 255, 255));&quot;&gt; (e.g., fastest, shortest, toll-free).&lt;/span&gt;&lt;span style=&quot;background-color: transparent; color: light-dark(rgb(0, 0, 0), rgb(255, 255, 255));&quot;&gt;&quot;&lt;/span&gt;&lt;/p&gt;" style="verticalAlign=top;align=left;overflow=fill;html=1;whiteSpace=wrap;" vertex="1" parent="1">
          <mxGeometry x="1210" y="680" width="180" height="120" as="geometry" />
        </mxCell>
        <mxCell id="nLQTtZPJFhFnZga12o0D-21" style="edgeStyle=orthogonalEdgeStyle;rounded=0;orthogonalLoop=1;jettySize=auto;html=1;endArrow=circlePlus;endFill=0;exitX=0.5;exitY=1;exitDx=0;exitDy=0;" edge="1" parent="1" source="nLQTtZPJFhFnZga12o0D-22">
          <mxGeometry relative="1" as="geometry">
            <mxPoint x="1740" y="490" as="targetPoint" />
            <Array as="points">
              <mxPoint x="1539" y="460" />
              <mxPoint x="1740" y="460" />
            </Array>
          </mxGeometry>
        </mxCell>
        <mxCell id="nLQTtZPJFhFnZga12o0D-22" value="&lt;p style=&quot;margin:0px;margin-top:4px;text-align:center;&quot;&gt;&lt;i&gt;&amp;lt;&amp;lt;requirement&amp;gt;&amp;gt;&lt;/i&gt;&lt;br&gt;&lt;b&gt;Availability&lt;/b&gt;&lt;/p&gt;&lt;hr size=&quot;1&quot; style=&quot;border-style:solid;&quot;&gt;&lt;p style=&quot;margin:0px;margin-left:4px;&quot;&gt;Id=&quot;NFR1&quot;&lt;/p&gt;&lt;p style=&quot;margin:0px;margin-left:4px;&quot;&gt;text=&quot;The system should have voice guidance available practically throughout the entire navigation.&quot;&lt;/p&gt;" style="verticalAlign=top;align=left;overflow=fill;html=1;whiteSpace=wrap;" vertex="1" parent="1">
          <mxGeometry x="1449.25" y="330" width="180" height="120" as="geometry" />
        </mxCell>
        <mxCell id="nLQTtZPJFhFnZga12o0D-25" style="edgeStyle=orthogonalEdgeStyle;rounded=0;orthogonalLoop=1;jettySize=auto;html=1;endArrow=circlePlus;endFill=0;exitX=0.5;exitY=1;exitDx=0;exitDy=0;" edge="1" parent="1" source="nLQTtZPJFhFnZga12o0D-26">
          <mxGeometry relative="1" as="geometry">
            <mxPoint x="1739.5" y="490" as="targetPoint" />
            <mxPoint x="1649.5" y="460.00000000000006" as="sourcePoint" />
            <Array as="points">
              <mxPoint x="1739" y="460" />
            </Array>
          </mxGeometry>
        </mxCell>
        <mxCell id="nLQTtZPJFhFnZga12o0D-26" value="&lt;p style=&quot;margin:0px;margin-top:4px;text-align:center;&quot;&gt;&lt;i&gt;&amp;lt;&amp;lt;requirement&amp;gt;&amp;gt;&lt;/i&gt;&lt;br&gt;&lt;b&gt;Reliabilty&lt;/b&gt;&lt;/p&gt;&lt;hr size=&quot;1&quot; style=&quot;border-style:solid;&quot;&gt;&lt;p style=&quot;margin:0px;margin-left:4px;&quot;&gt;Id=&quot;NFR2&quot;&lt;/p&gt;&lt;p style=&quot;margin:0px;margin-left:4px;&quot;&gt;text=&quot;The system should have voice guidance available practically throughout the entire navigation.&quot;&lt;/p&gt;" style="verticalAlign=top;align=left;overflow=fill;html=1;whiteSpace=wrap;" vertex="1" parent="1">
          <mxGeometry x="1649.25" y="330" width="180" height="120" as="geometry" />
        </mxCell>
        <mxCell id="nLQTtZPJFhFnZga12o0D-29" style="edgeStyle=orthogonalEdgeStyle;rounded=0;orthogonalLoop=1;jettySize=auto;html=1;endArrow=circlePlus;endFill=0;exitX=0.5;exitY=1;exitDx=0;exitDy=0;" edge="1" parent="1" source="nLQTtZPJFhFnZga12o0D-30">
          <mxGeometry relative="1" as="geometry">
            <mxPoint x="1740" y="490" as="targetPoint" />
            <Array as="points">
              <mxPoint x="1939" y="460" />
              <mxPoint x="1740" y="460" />
            </Array>
          </mxGeometry>
        </mxCell>
        <mxCell id="nLQTtZPJFhFnZga12o0D-30" value="&lt;p style=&quot;margin: 4px 0px 0px; text-align: center;&quot;&gt;&lt;i&gt;&amp;lt;&amp;lt;requirement&amp;gt;&amp;gt;&lt;/i&gt;&lt;br&gt;&lt;span style=&quot;background-color: transparent; color: light-dark(rgb(0, 0, 0), rgb(255, 255, 255)); text-align: left;&quot;&gt;&lt;b&gt;Performance&lt;/b&gt;&lt;/span&gt;&lt;/p&gt;&lt;hr size=&quot;1&quot; style=&quot;border-style:solid;&quot;&gt;&lt;p style=&quot;margin:0px;margin-left:4px;&quot;&gt;Id=&quot;NFR3&quot;&lt;/p&gt;&lt;p style=&quot;margin:0px;margin-left:4px;&quot;&gt;text=&quot;The system shall support at least &lt;span style=&quot;&quot; data-end=&quot;2237&quot; data-start=&quot;2221&quot;&gt;20 languages&lt;/span&gt; with localized measurements.&quot;&lt;/p&gt;" style="verticalAlign=top;align=left;overflow=fill;html=1;whiteSpace=wrap;" vertex="1" parent="1">
          <mxGeometry x="1849.25" y="330" width="180" height="120" as="geometry" />
        </mxCell>
        <mxCell id="nLQTtZPJFhFnZga12o0D-33" style="edgeStyle=orthogonalEdgeStyle;rounded=0;orthogonalLoop=1;jettySize=auto;html=1;entryX=0.5;entryY=0;entryDx=0;entryDy=0;endArrow=circlePlus;endFill=0;exitX=0.75;exitY=1;exitDx=0;exitDy=0;" edge="1" parent="1" source="nLQTtZPJFhFnZga12o0D-34" target="nLQTtZPJFhFnZga12o0D-2">
          <mxGeometry relative="1" as="geometry">
            <Array as="points">
              <mxPoint x="2184" y="460" />
              <mxPoint x="1740" y="460" />
            </Array>
          </mxGeometry>
        </mxCell>
        <mxCell id="nLQTtZPJFhFnZga12o0D-34" value="&lt;p style=&quot;margin:0px;margin-top:4px;text-align:center;&quot;&gt;&lt;i&gt;&amp;lt;&amp;lt;requirement&amp;gt;&amp;gt;&lt;/i&gt;&lt;br&gt;&lt;b&gt;Usability&lt;/b&gt;&lt;/p&gt;&lt;hr size=&quot;1&quot; style=&quot;border-style:solid;&quot;&gt;&lt;p style=&quot;margin:0px;margin-left:4px;&quot;&gt;Id=&quot;NFR4&quot;&lt;/p&gt;&lt;p style=&quot;margin:0px;margin-left:4px;&quot;&gt;text=&quot;The system shall be easy to use.&quot;&lt;/p&gt;" style="verticalAlign=top;align=left;overflow=fill;html=1;whiteSpace=wrap;" vertex="1" parent="1">
          <mxGeometry x="2049.25" y="330" width="180" height="120" as="geometry" />
        </mxCell>
        <mxCell id="nLQTtZPJFhFnZga12o0D-41" style="edgeStyle=orthogonalEdgeStyle;rounded=0;orthogonalLoop=1;jettySize=auto;html=1;exitX=0.5;exitY=0;exitDx=0;exitDy=0;endArrow=circlePlus;endFill=0;" edge="1" parent="1" source="nLQTtZPJFhFnZga12o0D-40" target="nLQTtZPJFhFnZga12o0D-2">
          <mxGeometry relative="1" as="geometry" />
        </mxCell>
        <mxCell id="nLQTtZPJFhFnZga12o0D-40" value="&lt;p style=&quot;margin:0px;margin-top:4px;text-align:center;&quot;&gt;&lt;i&gt;&amp;lt;&amp;lt;requirement&amp;gt;&amp;gt;&lt;/i&gt;&lt;br&gt;&lt;b&gt;Real-Time Optimization&lt;/b&gt;&lt;/p&gt;&lt;hr size=&quot;1&quot; style=&quot;border-style:solid;&quot;&gt;&lt;p style=&quot;margin:0px;margin-left:4px;&quot;&gt;Id=&quot;DR1.3&quot;&lt;/p&gt;&lt;p style=&quot;margin:0px;margin-left:4px;&quot;&gt;text=&quot;The system shall update instructions in real time if the user deviates from the route&lt;span style=&quot;background-color: transparent; font-family: Arial, sans-serif; white-space-collapse: preserve; color: light-dark(rgb(0, 0, 0), rgb(255, 255, 255));&quot;&gt;&lt;font&gt;.&lt;/font&gt;&lt;/span&gt;&lt;span style=&quot;background-color: transparent; text-wrap-mode: nowrap; color: rgba(0, 0, 0, 0); font-family: monospace; font-size: 0px;&quot;&gt;%3CmxGraphModel%3E%3Croot%3E%3CmxCell%20id%3D%220%22%2F%3E%3CmxCell%20id%3D%221%22%20parent%3D%220%22%2F%3E%3CmxCell%20id%3D%222%22%20value%3D%22%26lt%3Bp%20style%3D%26quot%3Bmargin%3A0px%3Bmargin-top%3A4px%3Btext-align%3Acenter%3B%26quot%3B%26gt%3B%26lt%3Bi%26gt%3B%26amp%3Blt%3B%26amp%3Blt%3Brequirement%26amp%3Bgt%3B%26amp%3Bgt%3B%26lt%3B%2Fi%26gt%3B%26lt%3Bbr%26gt%3B%26lt%3Bb%26gt%3BSave%20Route%26lt%3B%2Fb%26gt%3B%26lt%3B%2Fp%26gt%3B%26lt%3Bhr%20size%3D%26quot%3B1%26quot%3B%20style%3D%26quot%3Bborder-style%3Asolid%3B%26quot%3B%26gt%3B%26lt%3Bp%20style%3D%26quot%3Bmargin%3A0px%3Bmargin-left%3A4px%3B%26quot%3B%26gt%3BId%3D%26quot%3BMSR-1.6%26quot%3B%26lt%3B%2Fp%26gt%3B%26lt%3Bp%20style%3D%26quot%3Bmargin%3A0px%3Bmargin-left%3A4px%3B%26quot%3B%26gt%3Btext%3D%26quot%3B%26lt%3Bspan%20id%3D%26quot%3Bdocs-internal-guid-bf6a09b7-7fff-7673-dde0-d15843a8d085%26quot%3B%26gt%3B%26lt%3Bspan%20style%3D%26quot%3Bfont-family%3A%20Arial%2C%20sans-serif%3B%20background-color%3A%20transparent%3B%20font-variant-numeric%3A%20normal%3B%20font-variant-east-asian%3A%20normal%3B%20font-variant-alternates%3A%20normal%3B%20font-variant-position%3A%20normal%3B%20font-variant-emoji%3A%20normal%3B%20vertical-align%3A%20baseline%3B%20white-space-collapse%3A%20preserve%3B%26quot%3B%26gt%3B%26lt%3Bfont%26gt%3BThe%20system%20shall%20allow%20saving%20a%20multi-stop%20route%20as%20a%20favorite%20or%20recurring%20route.%26lt%3B%2Ffont%26gt%3B%26lt%3B%2Fspan%26gt%3B%26lt%3B%2Fspan%26gt%3B%26quot%3B%26lt%3B%2Fp%26gt%3B%22%20style%3D%22verticalAlign%3Dtop%3Balign%3Dleft%3Boverflow%3Dfill%3Bhtml%3D1%3BwhiteSpace%3Dwrap%3B%22%20vertex%3D%221%22%20parent%3D%221%22%3E%3CmxGeometry%20x%3D%221680%22%20y%3D%22841%22%20width%3D%22180%22%20height%3D%22120%22%20as%3D%22geometry%22%2F%3E%3C%2FmxCell%3E%3C%2Froot%3E%3C%2FmxGraphModel%3E&lt;/span&gt;&lt;span style=&quot;background-color: transparent; color: light-dark(rgb(0, 0, 0), rgb(255, 255, 255));&quot;&gt;&quot;&lt;/span&gt;&lt;/p&gt;" style="verticalAlign=top;align=left;overflow=fill;html=1;whiteSpace=wrap;" vertex="1" parent="1">
          <mxGeometry x="1649.25" y="680" width="180" height="120" as="geometry" />
        </mxCell>
        <mxCell id="nLQTtZPJFhFnZga12o0D-57" style="edgeStyle=orthogonalEdgeStyle;rounded=0;orthogonalLoop=1;jettySize=auto;html=1;exitX=0.5;exitY=0;exitDx=0;exitDy=0;entryX=0.911;entryY=1.011;entryDx=0;entryDy=0;dashed=1;endArrow=open;endFill=0;entryPerimeter=0;" edge="1" parent="1" source="nLQTtZPJFhFnZga12o0D-55" target="nLQTtZPJFhFnZga12o0D-40">
          <mxGeometry relative="1" as="geometry" />
        </mxCell>
        <mxCell id="nLQTtZPJFhFnZga12o0D-55" value="&lt;p style=&quot;margin:0px;margin-top:4px;text-align:center;&quot;&gt;&lt;i&gt;&amp;lt;&amp;lt;requirement&amp;gt;&amp;gt;&lt;/i&gt;&lt;br&gt;&lt;/p&gt;&lt;p style=&quot;margin:0px;margin-top:4px;text-align:center;&quot;&gt;&lt;span style=&quot;background-color: transparent; color: light-dark(rgb(0, 0, 0), rgb(255, 255, 255)); text-align: left;&quot;&gt;&lt;b&gt;&lt;i&gt;GPS Decision&lt;/i&gt;&lt;/b&gt;&lt;/span&gt;&lt;/p&gt;&lt;p style=&quot;margin: 4px 0px 0px;&quot;&gt;&lt;span style=&quot;background-color: transparent; color: light-dark(rgb(0, 0, 0), rgb(255, 255, 255));&quot;&gt;Id=&quot;D1&quot;&lt;/span&gt;&lt;/p&gt;&lt;p style=&quot;margin:0px;margin-left:4px;&quot;&gt;text=&quot;&amp;nbsp;&lt;span style=&quot;background-color: transparent; color: light-dark(rgb(0, 0, 0), rgb(255, 255, 255));&quot;&gt;The system shall use the GPS sensor to detect the user location.&lt;/span&gt;&lt;span style=&quot;background-color: transparent; color: light-dark(rgb(0, 0, 0), rgb(255, 255, 255));&quot;&gt;&quot;&lt;/span&gt;&lt;span style=&quot;color: rgba(0, 0, 0, 0); font-family: monospace; font-size: 0px; text-wrap-mode: nowrap; background-color: transparent;&quot;&gt;%3CmxGraphModel%3E%3Croot%3E%3CmxCell%20id%3D%220%22%2F%3E%3CmxCell%20id%3D%221%22%20parent%3D%220%22%2F%3E%3CmxCell%20id%3D%222%22%20value%3D%22%26lt%3Bp%20style%3D%26quot%3Bmargin%3A0px%3Bmargin-top%3A4px%3Btext-align%3Acenter%3B%26quot%3B%26gt%3B%26lt%3Bi%26gt%3B%26amp%3Blt%3B%26amp%3Blt%3Brequirement%26amp%3Bgt%3B%26amp%3Bgt%3B%26lt%3B%2Fi%26gt%3B%26lt%3Bbr%26gt%3B%26lt%3B%2Fp%26gt%3B%26lt%3Bp%20style%3D%26quot%3Bmargin%3A0px%3Bmargin-top%3A4px%3Btext-align%3Acenter%3B%26quot%3B%26gt%3B%26lt%3Bi%26gt%3B%26lt%3Bb%26gt%3BInput%20Filters%26lt%3B%2Fb%26gt%3B%26lt%3B%2Fi%26gt%3B%26lt%3B%2Fp%26gt%3B%26lt%3Bp%20style%3D%26quot%3Bmargin%3A0px%3Bmargin-left%3A4px%3B%26quot%3B%26gt%3BId%3D%26quot%3BMSR-1.1.2%26quot%3B%26lt%3B%2Fp%26gt%3B%26lt%3Bp%20style%3D%26quot%3Bmargin%3A0px%3Bmargin-left%3A4px%3B%26quot%3B%26gt%3Btext%3D%26quot%3B%26amp%3Bnbsp%3B%26lt%3Bspan%20style%3D%26quot%3Bbackground-color%3A%20transparent%3B%20color%3A%20light-dark(rgb(0%2C%200%2C%200)%2C%20rgb(255%2C%20255%2C%20255))%3B%26quot%3B%26gt%3BThe%20system%20shall%20enable%20the%20user%20to%20apply%20route%20filters%20such%20as%3A%26amp%3Bnbsp%3B%26lt%3B%2Fspan%26gt%3B%26lt%3Bspan%20style%3D%26quot%3Bbackground-color%3A%20transparent%3B%20color%3A%20light-dark(rgb(0%2C%200%2C%200)%2C%20rgb(255%2C%20255%2C%20255))%3B%26quot%3B%26gt%3BAvoid%20toll%20roads%3B%26amp%3Bnbsp%3B%26lt%3B%2Fspan%26gt%3B%26lt%3Bspan%20style%3D%26quot%3Bbackground-color%3A%20transparent%3B%20color%3A%20light-dark(rgb(0%2C%200%2C%200)%2C%20rgb(255%2C%20255%2C%20255))%3B%26quot%3B%26gt%3BAvoid%20highways%3B%20Avoid%20Ferries.%26lt%3B%2Fspan%26gt%3B%26lt%3B%2Fp%26gt%3B%22%20style%3D%22verticalAlign%3Dtop%3Balign%3Dleft%3Boverflow%3Dfill%3Bhtml%3D1%3BwhiteSpace%3Dwrap%3B%22%20vertex%3D%221%22%20parent%3D%221%22%3E%3CmxGeometry%20x%3D%221530%22%20y%3D%22840%22%20width%3D%22180%22%20height%3D%22120%22%20as%3D%22geometry%22%2F%3E%3C%2FmxCell%3E%3C%2Froot%3E%3C%2FmxGraphModel%3E&lt;/span&gt;&lt;/p&gt;" style="verticalAlign=top;align=left;overflow=fill;html=1;whiteSpace=wrap;" vertex="1" parent="1">
          <mxGeometry x="1720" y="1090" width="180" height="120" as="geometry" />
        </mxCell>
        <mxCell id="nLQTtZPJFhFnZga12o0D-58" value="&amp;lt;deriveReqt&amp;gt;&amp;gt;" style="text;html=1;align=center;verticalAlign=middle;resizable=0;points=[];autosize=1;strokeColor=none;fillColor=none;" vertex="1" parent="1">
          <mxGeometry x="1729.25" y="1030" width="100" height="30" as="geometry" />
        </mxCell>
        <mxCell id="nLQTtZPJFhFnZga12o0D-61" value="&lt;p style=&quot;margin:0px;margin-top:4px;text-align:center;&quot;&gt;&lt;i&gt;&amp;lt;&amp;lt;block&amp;gt;&amp;gt;&lt;/i&gt;&lt;br&gt;&lt;/p&gt;&lt;p style=&quot;margin:0px;margin-top:4px;text-align:center;&quot;&gt;&lt;span style=&quot;background-color: transparent; color: light-dark(rgb(0, 0, 0), rgb(255, 255, 255)); text-align: left;&quot;&gt;&lt;b&gt;&lt;i&gt;GPS&amp;nbsp;&lt;/i&gt;&lt;/b&gt;&lt;/span&gt;&lt;/p&gt;&lt;p style=&quot;margin: 4px 0px 0px;&quot;&gt;&lt;span style=&quot;background-color: transparent; color: light-dark(rgba(0, 0, 0, 0), rgb(237, 237, 237)); font-family: monospace; font-size: 0px; text-wrap-mode: nowrap;&quot;&gt;%3CmxGraphModel%3E%3Croot%3E%3CmxCell%20id%3D%220%22%2F%3E%3CmxCell%20id%3D%221%22%20parent%3D%220%22%2F%3E%3CmxCell%20id%3D%222%22%20value%3D%22%26lt%3Bp%20style%3D%26quot%3Bmargin%3A0px%3Bmargin-top%3A4px%3Btext-align%3Acenter%3B%26quot%3B%26gt%3B%26lt%3Bi%26gt%3B%26amp%3Blt%3B%26amp%3Blt%3Brequirement%26amp%3Bgt%3B%26amp%3Bgt%3B%26lt%3B%2Fi%26gt%3B%26lt%3Bbr%26gt%3B%26lt%3B%2Fp%26gt%3B%26lt%3Bp%20style%3D%26quot%3Bmargin%3A0px%3Bmargin-top%3A4px%3Btext-align%3Acenter%3B%26quot%3B%26gt%3B%26lt%3Bi%26gt%3B%26lt%3Bb%26gt%3BInput%20Filters%26lt%3B%2Fb%26gt%3B%26lt%3B%2Fi%26gt%3B%26lt%3B%2Fp%26gt%3B%26lt%3Bp%20style%3D%26quot%3Bmargin%3A0px%3Bmargin-left%3A4px%3B%26quot%3B%26gt%3BId%3D%26quot%3BMSR-1.1.2%26quot%3B%26lt%3B%2Fp%26gt%3B%26lt%3Bp%20style%3D%26quot%3Bmargin%3A0px%3Bmargin-left%3A4px%3B%26quot%3B%26gt%3Btext%3D%26quot%3B%26amp%3Bnbsp%3B%26lt%3Bspan%20style%3D%26quot%3Bbackground-color%3A%20transparent%3B%20color%3A%20light-dark(rgb(0%2C%200%2C%200)%2C%20rgb(255%2C%20255%2C%20255))%3B%26quot%3B%26gt%3BThe%20system%20shall%20enable%20the%20user%20to%20apply%20route%20filters%20such%20as%3A%26amp%3Bnbsp%3B%26lt%3B%2Fspan%26gt%3B%26lt%3Bspan%20style%3D%26quot%3Bbackground-color%3A%20transparent%3B%20color%3A%20light-dark(rgb(0%2C%200%2C%200)%2C%20rgb(255%2C%20255%2C%20255))%3B%26quot%3B%26gt%3BAvoid%20toll%20roads%3B%26amp%3Bnbsp%3B%26lt%3B%2Fspan%26gt%3B%26lt%3Bspan%20style%3D%26quot%3Bbackground-color%3A%20transparent%3B%20color%3A%20light-dark(rgb(0%2C%200%2C%200)%2C%20rgb(255%2C%20255%2C%20255))%3B%26quot%3B%26gt%3BAvoid%20highways%3B%20Avoid%20Ferries.%26lt%3B%2Fspan%26gt%3B%26lt%3B%2Fp%26gt%3B%22%20style%3D%22verticalAlign%3Dtop%3Balign%3Dleft%3Boverflow%3Dfill%3Bhtml%3D1%3BwhiteSpace%3Dwrap%3B%22%20vertex%3D%221%22%20parent%3D%221%22%3E%3CmxGeometry%20x%3D%221530%22%20y%3D%22840%22%20width%3D%22180%22%20height%3D%22120%22%20as%3D%22geometry%22%2F%3E%3C%2FmxCell%3E%3C%2Froot%3E%3C%2FmxGraphModel%3E&lt;/span&gt;&lt;/p&gt;" style="verticalAlign=top;align=left;overflow=fill;html=1;whiteSpace=wrap;" vertex="1" parent="1">
          <mxGeometry x="2050" y="1139" width="80" height="50" as="geometry" />
        </mxCell>
        <mxCell id="nLQTtZPJFhFnZga12o0D-66" style="edgeStyle=orthogonalEdgeStyle;rounded=0;orthogonalLoop=1;jettySize=auto;html=1;exitX=0;exitY=0.25;exitDx=0;exitDy=0;dashed=1;endArrow=open;endFill=0;" edge="1" parent="1" source="nLQTtZPJFhFnZga12o0D-61" target="nLQTtZPJFhFnZga12o0D-55">
          <mxGeometry relative="1" as="geometry">
            <mxPoint x="2040" y="1037" as="targetPoint" />
          </mxGeometry>
        </mxCell>
        <mxCell id="nLQTtZPJFhFnZga12o0D-67" value="&amp;lt;&amp;lt;satisfy&amp;gt;&amp;gt;" style="text;html=1;align=center;verticalAlign=middle;resizable=0;points=[];autosize=1;strokeColor=none;fillColor=none;" vertex="1" parent="1">
          <mxGeometry x="1950" y="1120" width="90" height="30" as="geometry" />
        </mxCell>
        <mxCell id="nLQTtZPJFhFnZga12o0D-71" style="edgeStyle=orthogonalEdgeStyle;rounded=0;orthogonalLoop=1;jettySize=auto;html=1;exitX=0.5;exitY=1;exitDx=0;exitDy=0;exitPerimeter=0;entryX=0.5;entryY=0;entryDx=0;entryDy=0;endArrow=none;startFill=0;dashed=1;" edge="1" parent="1" source="nLQTtZPJFhFnZga12o0D-70" target="nLQTtZPJFhFnZga12o0D-61">
          <mxGeometry relative="1" as="geometry" />
        </mxCell>
        <mxCell id="nLQTtZPJFhFnZga12o0D-70" value="&lt;p style=&quot;text-align: left; margin: 4px 0px 0px;&quot;&gt;&lt;b&gt;&lt;i&gt;satisfies&lt;/i&gt;&lt;/b&gt;&lt;/p&gt;&lt;p style=&quot;text-align: left; margin: 4px 0px 0px;&quot;&gt;&lt;i&gt;&amp;lt;&amp;lt;requirement&amp;gt;&amp;gt; GPS Decision&lt;/i&gt;&lt;/p&gt;" style="shape=note;size=20;whiteSpace=wrap;html=1;" vertex="1" parent="1">
          <mxGeometry x="2070" y="1030" width="179" height="70" as="geometry" />
        </mxCell>
        <mxCell id="nLQTtZPJFhFnZga12o0D-99" style="edgeStyle=orthogonalEdgeStyle;rounded=0;orthogonalLoop=1;jettySize=auto;html=1;exitX=0.5;exitY=1;exitDx=0;exitDy=0;entryX=0.5;entryY=0;entryDx=0;entryDy=0;endArrow=circlePlus;endFill=0;" edge="1" parent="1" source="nLQTtZPJFhFnZga12o0D-97" target="nLQTtZPJFhFnZga12o0D-34">
          <mxGeometry relative="1" as="geometry" />
        </mxCell>
        <mxCell id="nLQTtZPJFhFnZga12o0D-97" value="&lt;p style=&quot;margin:0px;margin-top:4px;text-align:center;&quot;&gt;&lt;i&gt;&amp;lt;&amp;lt;requirement&amp;gt;&amp;gt;&lt;/i&gt;&lt;br&gt;&lt;b&gt;Personalisation&lt;/b&gt;&lt;/p&gt;&lt;hr size=&quot;1&quot; style=&quot;border-style:solid;&quot;&gt;&lt;p style=&quot;margin:0px;margin-left:4px;&quot;&gt;Id=&quot;NFR-6.1&quot;&lt;/p&gt;&lt;p style=&quot;margin:0px;margin-left:4px;&quot;&gt;text=&quot;&lt;span style=&quot;background-color: transparent; color: light-dark(rgb(0, 0, 0), rgb(255, 255, 255));&quot;&gt;Users shall be able to enable or disable voice instructions with one action and configure the volume levels of the voice inputs&lt;/span&gt;&lt;/p&gt;" style="verticalAlign=top;align=left;overflow=fill;html=1;whiteSpace=wrap;" vertex="1" parent="1">
          <mxGeometry x="2049.25" y="170" width="190.75" height="120" as="geometry" />
        </mxCell>
        <mxCell id="nLQTtZPJFhFnZga12o0D-105" style="edgeStyle=orthogonalEdgeStyle;rounded=0;orthogonalLoop=1;jettySize=auto;html=1;exitX=0.5;exitY=0;exitDx=0;exitDy=0;entryX=0.5;entryY=1;entryDx=0;entryDy=0;endArrow=circlePlus;endFill=0;" edge="1" parent="1" source="nLQTtZPJFhFnZga12o0D-103" target="nLQTtZPJFhFnZga12o0D-2">
          <mxGeometry relative="1" as="geometry" />
        </mxCell>
        <mxCell id="nLQTtZPJFhFnZga12o0D-103" value="&lt;p style=&quot;margin:0px;margin-top:4px;text-align:center;&quot;&gt;&lt;i&gt;&amp;lt;&amp;lt;requirement&amp;gt;&amp;gt;&lt;/i&gt;&lt;br&gt;&lt;b&gt;Currently notification&lt;/b&gt;&lt;/p&gt;&lt;hr size=&quot;1&quot; style=&quot;border-style:solid;&quot;&gt;&lt;p style=&quot;margin:0px;margin-left:4px;&quot;&gt;Id=&quot;DR1.2&quot;&lt;/p&gt;&lt;p style=&quot;margin:0px;margin-left:4px;&quot;&gt;text=&quot;The system shall provide turn-by-turn audio instructions to the user during navigation.&lt;span style=&quot;background-color: transparent; color: light-dark(rgb(0, 0, 0), rgb(255, 255, 255));&quot;&gt;&quot;&lt;/span&gt;&lt;/p&gt;" style="verticalAlign=top;align=left;overflow=fill;html=1;whiteSpace=wrap;" vertex="1" parent="1">
          <mxGeometry x="1429.25" y="680" width="180" height="120" as="geometry" />
        </mxCell>
        <mxCell id="nLQTtZPJFhFnZga12o0D-106" style="edgeStyle=orthogonalEdgeStyle;rounded=0;orthogonalLoop=1;jettySize=auto;html=1;exitX=0.5;exitY=0;exitDx=0;exitDy=0;entryX=0.5;entryY=1;entryDx=0;entryDy=0;endArrow=circlePlus;endFill=0;" edge="1" parent="1" source="nLQTtZPJFhFnZga12o0D-104" target="nLQTtZPJFhFnZga12o0D-2">
          <mxGeometry relative="1" as="geometry" />
        </mxCell>
        <mxCell id="nLQTtZPJFhFnZga12o0D-104" value="&lt;p style=&quot;margin:0px;margin-top:4px;text-align:center;&quot;&gt;&lt;i&gt;&amp;lt;&amp;lt;requirement&amp;gt;&amp;gt;&lt;/i&gt;&lt;br&gt;&lt;b&gt;Multi-languague&lt;/b&gt;&lt;/p&gt;&lt;hr size=&quot;1&quot; style=&quot;border-style:solid;&quot;&gt;&lt;p style=&quot;margin:0px;margin-left:4px;&quot;&gt;Id=&quot;DR1.4&quot;&lt;/p&gt;&lt;p style=&quot;margin:0px;margin-left:4px;&quot;&gt;text=&quot;The system shall support multilingual voice instructions based on user preferences&lt;span style=&quot;background-color: transparent; font-family: Arial, sans-serif; white-space-collapse: preserve; color: light-dark(rgb(0, 0, 0), rgb(255, 255, 255));&quot;&gt;&lt;font&gt;.&lt;/font&gt;&lt;/span&gt;&lt;span style=&quot;background-color: transparent; text-wrap-mode: nowrap; color: rgba(0, 0, 0, 0); font-family: monospace; font-size: 0px;&quot;&gt;%3CmxGraphModel%3E%3Croot%3E%3CmxCell%20id%3D%220%22%2F%3E%3CmxCell%20id%3D%221%22%20parent%3D%220%22%2F%3E%3CmxCell%20id%3D%222%22%20value%3D%22%26lt%3Bp%20style%3D%26quot%3Bmargin%3A0px%3Bmargin-top%3A4px%3Btext-align%3Acenter%3B%26quot%3B%26gt%3B%26lt%3Bi%26gt%3B%26amp%3Blt%3B%26amp%3Blt%3Brequirement%26amp%3Bgt%3B%26amp%3Bgt%3B%26lt%3B%2Fi%26gt%3B%26lt%3Bbr%26gt%3B%26lt%3Bb%26gt%3BSave%20Route%26lt%3B%2Fb%26gt%3B%26lt%3B%2Fp%26gt%3B%26lt%3Bhr%20size%3D%26quot%3B1%26quot%3B%20style%3D%26quot%3Bborder-style%3Asolid%3B%26quot%3B%26gt%3B%26lt%3Bp%20style%3D%26quot%3Bmargin%3A0px%3Bmargin-left%3A4px%3B%26quot%3B%26gt%3BId%3D%26quot%3BMSR-1.6%26quot%3B%26lt%3B%2Fp%26gt%3B%26lt%3Bp%20style%3D%26quot%3Bmargin%3A0px%3Bmargin-left%3A4px%3B%26quot%3B%26gt%3Btext%3D%26quot%3B%26lt%3Bspan%20id%3D%26quot%3Bdocs-internal-guid-bf6a09b7-7fff-7673-dde0-d15843a8d085%26quot%3B%26gt%3B%26lt%3Bspan%20style%3D%26quot%3Bfont-family%3A%20Arial%2C%20sans-serif%3B%20background-color%3A%20transparent%3B%20font-variant-numeric%3A%20normal%3B%20font-variant-east-asian%3A%20normal%3B%20font-variant-alternates%3A%20normal%3B%20font-variant-position%3A%20normal%3B%20font-variant-emoji%3A%20normal%3B%20vertical-align%3A%20baseline%3B%20white-space-collapse%3A%20preserve%3B%26quot%3B%26gt%3B%26lt%3Bfont%26gt%3BThe%20system%20shall%20allow%20saving%20a%20multi-stop%20route%20as%20a%20favorite%20or%20recurring%20route.%26lt%3B%2Ffont%26gt%3B%26lt%3B%2Fspan%26gt%3B%26lt%3B%2Fspan%26gt%3B%26quot%3B%26lt%3B%2Fp%26gt%3B%22%20style%3D%22verticalAlign%3Dtop%3Balign%3Dleft%3Boverflow%3Dfill%3Bhtml%3D1%3BwhiteSpace%3Dwrap%3B%22%20vertex%3D%221%22%20parent%3D%221%22%3E%3CmxGeometry%20x%3D%221680%22%20y%3D%22841%22%20width%3D%22180%22%20height%3D%22120%22%20as%3D%22geometry%22%2F%3E%3C%2FmxCell%3E%3C%2Froot%3E%3C%2FmxGraphModel%3E&lt;/span&gt;&lt;span style=&quot;background-color: transparent; color: light-dark(rgb(0, 0, 0), rgb(255, 255, 255));&quot;&gt;&quot;&lt;/span&gt;&lt;/p&gt;" style="verticalAlign=top;align=left;overflow=fill;html=1;whiteSpace=wrap;" vertex="1" parent="1">
          <mxGeometry x="1870" y="680" width="180" height="120" as="geometry" />
        </mxCell>
        <mxCell id="nLQTtZPJFhFnZga12o0D-108" style="edgeStyle=orthogonalEdgeStyle;rounded=0;orthogonalLoop=1;jettySize=auto;html=1;exitX=0.5;exitY=0;exitDx=0;exitDy=0;entryX=0.5;entryY=1;entryDx=0;entryDy=0;endArrow=circlePlus;endFill=0;" edge="1" parent="1" source="nLQTtZPJFhFnZga12o0D-107" target="nLQTtZPJFhFnZga12o0D-104">
          <mxGeometry relative="1" as="geometry" />
        </mxCell>
        <mxCell id="nLQTtZPJFhFnZga12o0D-107" value="&lt;p style=&quot;margin:0px;margin-top:4px;text-align:center;&quot;&gt;&lt;i&gt;&amp;lt;&amp;lt;requirement&amp;gt;&amp;gt;&lt;/i&gt;&lt;br&gt;&lt;b&gt;Personalisation&lt;/b&gt;&lt;/p&gt;&lt;hr size=&quot;1&quot; style=&quot;border-style:solid;&quot;&gt;&lt;p style=&quot;margin:0px;margin-left:4px;&quot;&gt;Id=&quot;DR1.4.1&quot;&lt;/p&gt;&lt;p style=&quot;margin:0px;margin-left:4px;&quot;&gt;text=&quot;The system shall allow users to choose between voice personalities or tones&lt;span style=&quot;background-color: transparent; font-family: Arial, sans-serif; white-space-collapse: preserve; color: light-dark(rgb(0, 0, 0), rgb(255, 255, 255));&quot;&gt;&lt;font&gt;.&lt;/font&gt;&lt;/span&gt;&lt;span style=&quot;background-color: transparent; text-wrap-mode: nowrap; color: rgba(0, 0, 0, 0); font-family: monospace; font-size: 0px;&quot;&gt;%3CmxGraphModel%3E%3Croot%3E%3CmxCell%20id%3D%220%22%2F%3E%3CmxCell%20id%3D%221%22%20parent%3D%220%22%2F%3E%3CmxCell%20id%3D%222%22%20value%3D%22%26lt%3Bp%20style%3D%26quot%3Bmargin%3A0px%3Bmargin-top%3A4px%3Btext-align%3Acenter%3B%26quot%3B%26gt%3B%26lt%3Bi%26gt%3B%26amp%3Blt%3B%26amp%3Blt%3Brequirement%26amp%3Bgt%3B%26amp%3Bgt%3B%26lt%3B%2Fi%26gt%3B%26lt%3Bbr%26gt%3B%26lt%3Bb%26gt%3BSave%20Route%26lt%3B%2Fb%26gt%3B%26lt%3B%2Fp%26gt%3B%26lt%3Bhr%20size%3D%26quot%3B1%26quot%3B%20style%3D%26quot%3Bborder-style%3Asolid%3B%26quot%3B%26gt%3B%26lt%3Bp%20style%3D%26quot%3Bmargin%3A0px%3Bmargin-left%3A4px%3B%26quot%3B%26gt%3BId%3D%26quot%3BMSR-1.6%26quot%3B%26lt%3B%2Fp%26gt%3B%26lt%3Bp%20style%3D%26quot%3Bmargin%3A0px%3Bmargin-left%3A4px%3B%26quot%3B%26gt%3Btext%3D%26quot%3B%26lt%3Bspan%20id%3D%26quot%3Bdocs-internal-guid-bf6a09b7-7fff-7673-dde0-d15843a8d085%26quot%3B%26gt%3B%26lt%3Bspan%20style%3D%26quot%3Bfont-family%3A%20Arial%2C%20sans-serif%3B%20background-color%3A%20transparent%3B%20font-variant-numeric%3A%20normal%3B%20font-variant-east-asian%3A%20normal%3B%20font-variant-alternates%3A%20normal%3B%20font-variant-position%3A%20normal%3B%20font-variant-emoji%3A%20normal%3B%20vertical-align%3A%20baseline%3B%20white-space-collapse%3A%20preserve%3B%26quot%3B%26gt%3B%26lt%3Bfont%26gt%3BThe%20system%20shall%20allow%20saving%20a%20multi-stop%20route%20as%20a%20favorite%20or%20recurring%20route.%26lt%3B%2Ffont%26gt%3B%26lt%3B%2Fspan%26gt%3B%26lt%3B%2Fspan%26gt%3B%26quot%3B%26lt%3B%2Fp%26gt%3B%22%20style%3D%22verticalAlign%3Dtop%3Balign%3Dleft%3Boverflow%3Dfill%3Bhtml%3D1%3BwhiteSpace%3Dwrap%3B%22%20vertex%3D%221%22%20parent%3D%221%22%3E%3CmxGeometry%20x%3D%221680%22%20y%3D%22841%22%20width%3D%22180%22%20height%3D%22120%22%20as%3D%22geometry%22%2F%3E%3C%2FmxCell%3E%3C%2Froot%3E%3C%2FmxGraphModel%3E&lt;/span&gt;&lt;span style=&quot;background-color: transparent; color: light-dark(rgb(0, 0, 0), rgb(255, 255, 255));&quot;&gt;&quot;&lt;/span&gt;&lt;/p&gt;" style="verticalAlign=top;align=left;overflow=fill;html=1;whiteSpace=wrap;" vertex="1" parent="1">
          <mxGeometry x="1870" y="880" width="180" height="120" as="geometry" />
        </mxCell>
        <mxCell id="nLQTtZPJFhFnZga12o0D-113" style="edgeStyle=orthogonalEdgeStyle;rounded=0;orthogonalLoop=1;jettySize=auto;html=1;exitX=0.5;exitY=0;exitDx=0;exitDy=0;entryX=0.5;entryY=1;entryDx=0;entryDy=0;endArrow=circlePlus;endFill=0;" edge="1" parent="1" source="nLQTtZPJFhFnZga12o0D-109" target="nLQTtZPJFhFnZga12o0D-40">
          <mxGeometry relative="1" as="geometry" />
        </mxCell>
        <mxCell id="nLQTtZPJFhFnZga12o0D-109" value="&lt;p style=&quot;margin:0px;margin-top:4px;text-align:center;&quot;&gt;&lt;i&gt;&amp;lt;&amp;lt;requirement&amp;gt;&amp;gt;&lt;/i&gt;&lt;br&gt;&lt;b&gt;Real-time Alerts&lt;/b&gt;&lt;/p&gt;&lt;hr size=&quot;1&quot; style=&quot;border-style:solid;&quot;&gt;&lt;p style=&quot;margin:0px;margin-left:4px;&quot;&gt;Id=&quot;DR1.3.1&quot;&lt;/p&gt;&lt;p style=&quot;margin:0px;margin-left:4px;&quot;&gt;text=&quot;The system shall provide alerts for real-time events&lt;span style=&quot;background-color: transparent; font-family: Arial, sans-serif; white-space-collapse: preserve; color: light-dark(rgb(0, 0, 0), rgb(255, 255, 255));&quot;&gt;&lt;font&gt;.&lt;/font&gt;&lt;/span&gt;&lt;span style=&quot;background-color: transparent; text-wrap-mode: nowrap; color: rgba(0, 0, 0, 0); font-family: monospace; font-size: 0px;&quot;&gt;%3CmxGraphModel%3E%3Croot%3E%3CmxCell%20id%3D%220%22%2F%3E%3CmxCell%20id%3D%221%22%20parent%3D%220%22%2F%3E%3CmxCell%20id%3D%222%22%20value%3D%22%26lt%3Bp%20style%3D%26quot%3Bmargin%3A0px%3Bmargin-top%3A4px%3Btext-align%3Acenter%3B%26quot%3B%26gt%3B%26lt%3Bi%26gt%3B%26amp%3Blt%3B%26amp%3Blt%3Brequirement%26amp%3Bgt%3B%26amp%3Bgt%3B%26lt%3B%2Fi%26gt%3B%26lt%3Bbr%26gt%3B%26lt%3Bb%26gt%3BSave%20Route%26lt%3B%2Fb%26gt%3B%26lt%3B%2Fp%26gt%3B%26lt%3Bhr%20size%3D%26quot%3B1%26quot%3B%20style%3D%26quot%3Bborder-style%3Asolid%3B%26quot%3B%26gt%3B%26lt%3Bp%20style%3D%26quot%3Bmargin%3A0px%3Bmargin-left%3A4px%3B%26quot%3B%26gt%3BId%3D%26quot%3BMSR-1.6%26quot%3B%26lt%3B%2Fp%26gt%3B%26lt%3Bp%20style%3D%26quot%3Bmargin%3A0px%3Bmargin-left%3A4px%3B%26quot%3B%26gt%3Btext%3D%26quot%3B%26lt%3Bspan%20id%3D%26quot%3Bdocs-internal-guid-bf6a09b7-7fff-7673-dde0-d15843a8d085%26quot%3B%26gt%3B%26lt%3Bspan%20style%3D%26quot%3Bfont-family%3A%20Arial%2C%20sans-serif%3B%20background-color%3A%20transparent%3B%20font-variant-numeric%3A%20normal%3B%20font-variant-east-asian%3A%20normal%3B%20font-variant-alternates%3A%20normal%3B%20font-variant-position%3A%20normal%3B%20font-variant-emoji%3A%20normal%3B%20vertical-align%3A%20baseline%3B%20white-space-collapse%3A%20preserve%3B%26quot%3B%26gt%3B%26lt%3Bfont%26gt%3BThe%20system%20shall%20allow%20saving%20a%20multi-stop%20route%20as%20a%20favorite%20or%20recurring%20route.%26lt%3B%2Ffont%26gt%3B%26lt%3B%2Fspan%26gt%3B%26lt%3B%2Fspan%26gt%3B%26quot%3B%26lt%3B%2Fp%26gt%3B%22%20style%3D%22verticalAlign%3Dtop%3Balign%3Dleft%3Boverflow%3Dfill%3Bhtml%3D1%3BwhiteSpace%3Dwrap%3B%22%20vertex%3D%221%22%20parent%3D%221%22%3E%3CmxGeometry%20x%3D%221680%22%20y%3D%22841%22%20width%3D%22180%22%20height%3D%22120%22%20as%3D%22geometry%22%2F%3E%3C%2FmxCell%3E%3C%2Froot%3E%3C%2FmxGraphModel%3E&lt;/span&gt;&lt;span style=&quot;background-color: transparent; color: light-dark(rgb(0, 0, 0), rgb(255, 255, 255));&quot;&gt;&quot;&lt;/span&gt;&lt;/p&gt;" style="verticalAlign=top;align=left;overflow=fill;html=1;whiteSpace=wrap;" vertex="1" parent="1">
          <mxGeometry x="1600" y="880" width="180" height="120" as="geometry" />
        </mxCell>
        <mxCell id="nLQTtZPJFhFnZga12o0D-112" style="edgeStyle=orthogonalEdgeStyle;rounded=0;orthogonalLoop=1;jettySize=auto;html=1;exitX=0.5;exitY=0;exitDx=0;exitDy=0;endArrow=circlePlus;endFill=0;" edge="1" parent="1" source="nLQTtZPJFhFnZga12o0D-111" target="nLQTtZPJFhFnZga12o0D-2">
          <mxGeometry relative="1" as="geometry" />
        </mxCell>
        <mxCell id="nLQTtZPJFhFnZga12o0D-111" value="&lt;p style=&quot;margin:0px;margin-top:4px;text-align:center;&quot;&gt;&lt;i&gt;&amp;lt;&amp;lt;requirement&amp;gt;&amp;gt;&lt;/i&gt;&lt;br&gt;&lt;b&gt;Personalisation&lt;/b&gt;&lt;/p&gt;&lt;hr size=&quot;1&quot; style=&quot;border-style:solid;&quot;&gt;&lt;p style=&quot;margin:0px;margin-left:4px;&quot;&gt;Id=&quot;DR1.5&quot;&lt;/p&gt;&lt;p style=&quot;margin:0px;margin-left:4px;&quot;&gt;text=&quot;The system shall reduce or mute voice notifications based on user-defined &quot;Do Not Disturb&quot; settings&lt;span style=&quot;background-color: transparent; font-family: Arial, sans-serif; white-space-collapse: preserve; color: light-dark(rgb(0, 0, 0), rgb(255, 255, 255));&quot;&gt;&lt;font&gt;.&lt;/font&gt;&lt;/span&gt;&lt;span style=&quot;background-color: transparent; text-wrap-mode: nowrap; color: rgba(0, 0, 0, 0); font-family: monospace; font-size: 0px;&quot;&gt;%3CmxGraphModel%3E%3Croot%3E%3CmxCell%20id%3D%220%22%2F%3E%3CmxCell%20id%3D%221%22%20parent%3D%220%22%2F%3E%3CmxCell%20id%3D%222%22%20value%3D%22%26lt%3Bp%20style%3D%26quot%3Bmargin%3A0px%3Bmargin-top%3A4px%3Btext-align%3Acenter%3B%26quot%3B%26gt%3B%26lt%3Bi%26gt%3B%26amp%3Blt%3B%26amp%3Blt%3Brequirement%26amp%3Bgt%3B%26amp%3Bgt%3B%26lt%3B%2Fi%26gt%3B%26lt%3Bbr%26gt%3B%26lt%3Bb%26gt%3BSave%20Route%26lt%3B%2Fb%26gt%3B%26lt%3B%2Fp%26gt%3B%26lt%3Bhr%20size%3D%26quot%3B1%26quot%3B%20style%3D%26quot%3Bborder-style%3Asolid%3B%26quot%3B%26gt%3B%26lt%3Bp%20style%3D%26quot%3Bmargin%3A0px%3Bmargin-left%3A4px%3B%26quot%3B%26gt%3BId%3D%26quot%3BMSR-1.6%26quot%3B%26lt%3B%2Fp%26gt%3B%26lt%3Bp%20style%3D%26quot%3Bmargin%3A0px%3Bmargin-left%3A4px%3B%26quot%3B%26gt%3Btext%3D%26quot%3B%26lt%3Bspan%20id%3D%26quot%3Bdocs-internal-guid-bf6a09b7-7fff-7673-dde0-d15843a8d085%26quot%3B%26gt%3B%26lt%3Bspan%20style%3D%26quot%3Bfont-family%3A%20Arial%2C%20sans-serif%3B%20background-color%3A%20transparent%3B%20font-variant-numeric%3A%20normal%3B%20font-variant-east-asian%3A%20normal%3B%20font-variant-alternates%3A%20normal%3B%20font-variant-position%3A%20normal%3B%20font-variant-emoji%3A%20normal%3B%20vertical-align%3A%20baseline%3B%20white-space-collapse%3A%20preserve%3B%26quot%3B%26gt%3B%26lt%3Bfont%26gt%3BThe%20system%20shall%20allow%20saving%20a%20multi-stop%20route%20as%20a%20favorite%20or%20recurring%20route.%26lt%3B%2Ffont%26gt%3B%26lt%3B%2Fspan%26gt%3B%26lt%3B%2Fspan%26gt%3B%26quot%3B%26lt%3B%2Fp%26gt%3B%22%20style%3D%22verticalAlign%3Dtop%3Balign%3Dleft%3Boverflow%3Dfill%3Bhtml%3D1%3BwhiteSpace%3Dwrap%3B%22%20vertex%3D%221%22%20parent%3D%221%22%3E%3CmxGeometry%20x%3D%221680%22%20y%3D%22841%22%20width%3D%22180%22%20height%3D%22120%22%20as%3D%22geometry%22%2F%3E%3C%2FmxCell%3E%3C%2Froot%3E%3C%2FmxGraphModel%3E&lt;/span&gt;&lt;span style=&quot;background-color: transparent; color: light-dark(rgb(0, 0, 0), rgb(255, 255, 255));&quot;&gt;&quot;&lt;/span&gt;&lt;/p&gt;" style="verticalAlign=top;align=left;overflow=fill;html=1;whiteSpace=wrap;" vertex="1" parent="1">
          <mxGeometry x="2090" y="680" width="180" height="120" as="geometry" />
        </mxCell>
        <mxCell id="nLQTtZPJFhFnZga12o0D-115" style="edgeStyle=orthogonalEdgeStyle;rounded=0;orthogonalLoop=1;jettySize=auto;html=1;exitX=0.5;exitY=1;exitDx=0;exitDy=0;endArrow=circlePlus;endFill=0;" edge="1" parent="1" source="nLQTtZPJFhFnZga12o0D-114">
          <mxGeometry relative="1" as="geometry">
            <mxPoint x="1740" y="490" as="targetPoint" />
            <Array as="points">
              <mxPoint x="1339" y="460" />
              <mxPoint x="1741" y="460" />
            </Array>
          </mxGeometry>
        </mxCell>
        <mxCell id="nLQTtZPJFhFnZga12o0D-114" value="&lt;p style=&quot;margin: 4px 0px 0px; text-align: center;&quot;&gt;&lt;i&gt;&amp;lt;&amp;lt;requirement&amp;gt;&amp;gt;&lt;/i&gt;&lt;br&gt;&lt;span style=&quot;background-color: transparent; color: light-dark(rgb(0, 0, 0), rgb(255, 255, 255)); text-align: left;&quot;&gt;&lt;b&gt;Quality&lt;/b&gt;&lt;/span&gt;&lt;/p&gt;&lt;hr size=&quot;1&quot; style=&quot;border-style:solid;&quot;&gt;&lt;p style=&quot;margin:0px;margin-left:4px;&quot;&gt;Id=&quot;NFR3&quot;&lt;/p&gt;&lt;p style=&quot;margin:0px;margin-left:4px;&quot;&gt;text=&quot;The system shall provide quality audio prompts.&quot;&lt;/p&gt;" style="verticalAlign=top;align=left;overflow=fill;html=1;whiteSpace=wrap;" vertex="1" parent="1">
          <mxGeometry x="1249.25" y="330" width="180" height="120" as="geometry" />
        </mxCell>
      </root>
    </mxGraphModel>
  </diagram>
</mxfile>
